<svg width="640" height="180" viewBox="0 0 640 180" fill="none" xmlns="http://www.w3.org/2000/svg" role="img" aria-labelledby="nextunnelBlackTitle nextunnelBlackDesc">
  <title id="nextunnelBlackTitle">NexTunnel black logo</title>
  <desc id="nextunnelBlackDesc">Black NexTunnel logo lockup with stylized NT mark and tunnel trajectory.</desc>
  <!-- NexTunnel 黑色版 LOGO：透明背景，便于在主题系统中按需放置。 -->
  <defs>
    <filter id="softShadowBlack" x="0" y="0" width="180" height="180" filterUnits="userSpaceOnUse" color-interpolation-filters="sRGB">
      <feDropShadow dx="0" dy="6" stdDeviation="7" flood-color="#000000" flood-opacity="0.14"/>
    </filter>
  </defs>

  <g filter="url(#softShadowBlack)">
    <path
      d="M43.92 133.6L77.76 38.4H104.56L133.72 98.72L153.04 38.4H188.12L154.28 133.6H126.36L98.44 76.12L79.56 133.6H43.92Z"
      fill="#000000"/>
    <path
      d="M136.84 38.4H230.08L220.36 66.44H190.28L166.52 133.6H131.56L155.32 66.44H127.12L136.84 38.4Z"
      fill="#000000"/>
    <!-- 轨迹用 Future White 做负形切割，保留速度和穿透感。 -->
    <path
      d="M24.8 112.48C75.68 88.28 126.2 70.76 176.28 59.96C139.2 76.8 103.64 96.52 69.6 119.08L24.8 112.48Z"
      fill="#FEFFFF"/>
    <path
      d="M57.2 118.72C96.52 91.84 137.96 70.16 181.48 53.64L171.16 75.56C134.24 87.36 99.52 104.32 67 126.4L57.2 118.72Z"
      fill="#000000"/>
    <path
      d="M54.08 100.88C91.28 82.64 128.88 69.16 166.88 60.44L162.28 66.76C126 77.12 90.44 91.76 55.56 110.64L54.08 100.88Z"
      fill="#FEFFFF"/>
    <path
      d="M194.8 53.52L176.92 84.32L170.96 68.64L155.32 62.52L194.8 53.52Z"
      fill="#FEFFFF"/>
    <path
      d="M34.84 128.44C64.8 116.44 94.32 107.68 123.4 102.16"
      stroke="#FEFFFF"
      stroke-width="4.8"
      stroke-linecap="round"/>
  </g>

  <path d="M276 45H276.6V135H276V45Z" fill="#A8A9A9" opacity="0.46"/>
  <text
    x="310"
    y="108"
    fill="#000000"
    font-family="Inter, HarmonyOS Sans, Microsoft YaHei, Arial, sans-serif"
    font-size="58"
    font-weight="800"
    letter-spacing="0">NexTunnel</text>
</svg>
