<svg xmlns="http://www.w3.org/2000/svg" width="900" height="560" viewBox="0 0 900 560">
  <defs>
    <radialGradient id="glowA" cx="24%" cy="20%" r="70%">
      <stop offset="0%" stop-color="#28e0ff" stop-opacity="0.45"/>
      <stop offset="48%" stop-color="#6c5cff" stop-opacity="0.22"/>
      <stop offset="100%" stop-color="#080b14" stop-opacity="0"/>
    </radialGradient>
    <radialGradient id="glowB" cx="84%" cy="84%" r="62%">
      <stop offset="0%" stop-color="#7c3cff" stop-opacity="0.38"/>
      <stop offset="58%" stop-color="#10162a" stop-opacity="0.18"/>
      <stop offset="100%" stop-color="#080b14" stop-opacity="0"/>
    </radialGradient>
    <linearGradient id="panel" x1="0" x2="1" y1="0" y2="1">
      <stop offset="0%" stop-color="#141a2b"/>
      <stop offset="100%" stop-color="#090d18"/>
    </linearGradient>
  </defs>
  <rect width="900" height="560" fill="#070a12"/>
  <rect width="900" height="560" fill="url(#glowA)"/>
  <rect width="900" height="560" fill="url(#glowB)"/>
  <path d="M0 400 C160 320 255 460 420 374 C590 286 706 230 900 305 L900 560 L0 560 Z" fill="#0b1020" opacity="0.88"/>
  <path d="M112 142 C240 72 392 78 518 150 C626 212 720 214 810 164" fill="none" stroke="#33d7ff" stroke-opacity="0.30" stroke-width="2"/>
  <path d="M118 180 C260 118 382 144 510 214 C636 284 738 282 822 232" fill="none" stroke="#7c5cff" stroke-opacity="0.22" stroke-width="2"/>
  <rect x="54" y="50" width="792" height="458" rx="24" fill="url(#panel)" opacity="0.72" stroke="#2b365a"/>
  <text x="86" y="112" fill="#eff6ff" font-family="-apple-system,BlinkMacSystemFont,Segoe UI,sans-serif" font-size="34" font-weight="700">NexTunnel</text>
  <text x="86" y="148" fill="#94a3b8" font-family="-apple-system,BlinkMacSystemFont,Segoe UI,sans-serif" font-size="16">拖拽安装，启动后在网络页检查 utun 与管理员权限状态。</text>
  <text x="178" y="422" fill="#dbeafe" font-family="-apple-system,BlinkMacSystemFont,Segoe UI,sans-serif" font-size="15" text-anchor="middle">NexTunnel.app</text>
  <text x="716" y="422" fill="#dbeafe" font-family="-apple-system,BlinkMacSystemFont,Segoe UI,sans-serif" font-size="15" text-anchor="middle">Applications</text>
  <path d="M292 344 L598 344" stroke="#38d6ff" stroke-width="3" stroke-linecap="round" stroke-dasharray="10 12" opacity="0.72"/>
  <path d="M578 326 L602 344 L578 362" fill="none" stroke="#38d6ff" stroke-width="3" stroke-linecap="round" stroke-linejoin="round" opacity="0.72"/>
</svg>

